<svg data-name="Layer 2" viewBox="0 0 35 35" xmlns="http://www.w3.org/2000/svg"><path d="M5.42 34.44a1.25 1.25 0 0 1-1.25-1.25V1.81a1.25 1.25 0 0 1 2.5 0v31.38a1.25 1.25 0 0 1-1.25 1.25Z" fill="#737373" class="fill-000000"></path><path d="M9.34 27.41H1.5a1.25 1.25 0 0 1 0-2.5h7.84a1.25 1.25 0 0 1 0 2.5ZM29.58 34.44a1.25 1.25 0 0 1-1.25-1.25V1.81a1.25 1.25 0 1 1 2.5 0v31.38a1.25 1.25 0 0 1-1.25 1.25Z" fill="#737373" class="fill-000000"></path><path d="M33.5 27.41h-7.84a1.25 1.25 0 0 1 0-2.5h7.84a1.25 1.25 0 0 1 0 2.5ZM17.5 34.44a1.25 1.25 0 0 1-1.25-1.25V1.81a1.25 1.25 0 1 1 2.5 0v31.38a1.25 1.25 0 0 1-1.25 1.25Z" fill="#737373" class="fill-000000"></path><path d="M21.42 10.09h-7.84a1.25 1.25 0 0 1 0-2.5h7.84a1.25 1.25 0 0 1 0 2.5Z" fill="#e6e6e6" class="fill-000000"></path></svg>