<svg viewBox="0 0 24 24" xmlns="http://www.w3.org/2000/svg"><path d="M19 7H8a1 1 0 0 1 0-2h11a1 1 0 0 1 0 2ZM19 11H8a1 1 0 0 1 0-2h11a1 1 0 0 1 0 2ZM13 15H8a1 1 0 0 1 0-2h5a1 1 0 0 1 0 2Z" fill="#e6e6e6" class="fill-464646"></path><circle cx="4" cy="6" fill="#e6e6e6" r="1" class="fill-464646"></circle><circle cx="4" cy="10" fill="#e6e6e6" r="1" class="fill-464646"></circle><circle cx="4" cy="14" fill="#e6e6e6" r="1" class="fill-464646"></circle><path d="M13 19H8a1 1 0 0 1 0-2h5a1 1 0 0 1 0 2Z" fill="#e6e6e6" class="fill-464646"></path><circle cx="4" cy="18" fill="#e6e6e6" r="1" class="fill-464646"></circle><path d="M21 15h-1v-1a1 1 0 0 0-2 0v1h-1a1 1 0 0 0 0 2h1v1a1 1 0 0 0 2 0v-1h1a1 1 0 0 0 0-2Z" fill="#e6e6e6" class="fill-464646"></path></svg>