<?xml version="1.0" ?><svg fill="#ffa200" data-name="Layer 1" height="200" id="Layer_1" viewBox="0 0 200 200" width="200" xmlns="http://www.w3.org/2000/svg"><title/><path d="M165.9,120.13a31.08,31.08,0,0,0-37.5-5l-11,6-5.5-10,41-71a9.86,9.86,0,0,0-17-10l-35,61-36-60.5c-3-5-9-6.5-13.5-3.5-5,3-6.5,9-3.5,13.5l41,71-5.5,10-12-6.5a31.75,31.75,0,1,0,12.5,43.5l16-27.5,16,27.5c9,16,30,20.5,45,11a31.67,31.67,0,0,0,5-49.5Zm-99,29a12,12,0,1,1-19-14.5,12.1,12.1,0,0,1,14-2l11,6Zm83,4c-6,3.5-13.5,2-17-4l-6-10.5,11-6c4.5-2.5,10.5-2,14,2,5.5,5,4.5,14.5-2,18.5Z"/></svg>